<mxfile host="app.diagrams.net" agent="Mozilla/5.0 (Windows NT 10.0; Win64; x64) AppleWebKit/537.36 (KHTML, like Gecko) Chrome/136.0.0.0 Safari/537.36" version="27.1.1">
  <diagram name="Halaman-1" id="MJmJi7lBrZbFinYOrvxq">
    <mxGraphModel dx="5398" dy="1349" grid="1" gridSize="10" guides="1" tooltips="1" connect="1" arrows="1" fold="1" page="1" pageScale="1" pageWidth="827" pageHeight="1169" math="0" shadow="0">
      <root>
        <mxCell id="0" />
        <mxCell id="1" parent="0" />
        <mxCell id="HMI9Q-J90Ie4Uta5KRQw-22" style="edgeStyle=orthogonalEdgeStyle;rounded=0;orthogonalLoop=1;jettySize=auto;html=1;" parent="1" source="HMI9Q-J90Ie4Uta5KRQw-1" target="HMI9Q-J90Ie4Uta5KRQw-2" edge="1">
          <mxGeometry relative="1" as="geometry" />
        </mxCell>
        <mxCell id="HMI9Q-J90Ie4Uta5KRQw-1" value="Mulai" style="strokeWidth=2;html=1;shape=mxgraph.flowchart.start_1;whiteSpace=wrap;" parent="1" vertex="1">
          <mxGeometry x="-1681" y="585" width="90" height="50" as="geometry" />
        </mxCell>
        <mxCell id="HMI9Q-J90Ie4Uta5KRQw-2" value="User membuka website" style="rounded=1;whiteSpace=wrap;html=1;absoluteArcSize=1;arcSize=14;strokeWidth=2;" parent="1" vertex="1">
          <mxGeometry x="-1711" y="685" width="150" height="70" as="geometry" />
        </mxCell>
        <mxCell id="HMI9Q-J90Ie4Uta5KRQw-12" style="edgeStyle=orthogonalEdgeStyle;rounded=0;orthogonalLoop=1;jettySize=auto;html=1;entryX=0;entryY=0.5;entryDx=0;entryDy=0;" parent="1" source="HMI9Q-J90Ie4Uta5KRQw-9" target="HMI9Q-J90Ie4Uta5KRQw-11" edge="1">
          <mxGeometry relative="1" as="geometry" />
        </mxCell>
        <mxCell id="HMI9Q-J90Ie4Uta5KRQw-14" style="edgeStyle=orthogonalEdgeStyle;rounded=0;orthogonalLoop=1;jettySize=auto;html=1;" parent="1" source="HMI9Q-J90Ie4Uta5KRQw-9" target="HMI9Q-J90Ie4Uta5KRQw-13" edge="1">
          <mxGeometry relative="1" as="geometry" />
        </mxCell>
        <mxCell id="HMI9Q-J90Ie4Uta5KRQw-9" value="punya akun?" style="strokeWidth=2;html=1;shape=mxgraph.flowchart.decision;whiteSpace=wrap;" parent="1" vertex="1">
          <mxGeometry x="1073" y="380" width="100" height="100" as="geometry" />
        </mxCell>
        <mxCell id="HMI9Q-J90Ie4Uta5KRQw-10" style="edgeStyle=orthogonalEdgeStyle;rounded=0;orthogonalLoop=1;jettySize=auto;html=1;entryX=0.03;entryY=0.5;entryDx=0;entryDy=0;entryPerimeter=0;exitX=0.894;exitY=0.483;exitDx=0;exitDy=0;exitPerimeter=0;" parent="1" source="HMI9Q-J90Ie4Uta5KRQw-48" target="HMI9Q-J90Ie4Uta5KRQw-9" edge="1">
          <mxGeometry relative="1" as="geometry">
            <mxPoint x="760" y="480" as="sourcePoint" />
          </mxGeometry>
        </mxCell>
        <mxCell id="HMI9Q-J90Ie4Uta5KRQw-19" style="edgeStyle=orthogonalEdgeStyle;rounded=0;orthogonalLoop=1;jettySize=auto;html=1;entryX=0.5;entryY=0;entryDx=0;entryDy=0;" parent="1" source="HMI9Q-J90Ie4Uta5KRQw-11" target="HMI9Q-J90Ie4Uta5KRQw-48" edge="1">
          <mxGeometry relative="1" as="geometry">
            <mxPoint x="685" y="445" as="targetPoint" />
            <Array as="points">
              <mxPoint x="1115" y="390" />
              <mxPoint x="685" y="390" />
            </Array>
          </mxGeometry>
        </mxCell>
        <mxCell id="HMI9Q-J90Ie4Uta5KRQw-11" value="User meregistrasi akun" style="rounded=1;whiteSpace=wrap;html=1;absoluteArcSize=1;arcSize=14;strokeWidth=2;" parent="1" vertex="1">
          <mxGeometry x="1286" y="395" width="150" height="70" as="geometry" />
        </mxCell>
        <mxCell id="HMI9Q-J90Ie4Uta5KRQw-13" value="Masukan email/nama dan passwordnya" style="rounded=1;whiteSpace=wrap;html=1;absoluteArcSize=1;arcSize=14;strokeWidth=2;" parent="1" vertex="1">
          <mxGeometry x="1048" y="600" width="150" height="70" as="geometry" />
        </mxCell>
        <mxCell id="HMI9Q-J90Ie4Uta5KRQw-15" value="iya" style="text;html=1;align=center;verticalAlign=middle;resizable=0;points=[];autosize=1;strokeColor=none;fillColor=none;" parent="1" vertex="1">
          <mxGeometry x="1086" y="530" width="40" height="30" as="geometry" />
        </mxCell>
        <mxCell id="HMI9Q-J90Ie4Uta5KRQw-16" value="Tidak" style="text;html=1;align=center;verticalAlign=middle;resizable=0;points=[];autosize=1;strokeColor=none;fillColor=none;" parent="1" vertex="1">
          <mxGeometry x="1168" y="395" width="50" height="30" as="geometry" />
        </mxCell>
        <mxCell id="HMI9Q-J90Ie4Uta5KRQw-26" style="edgeStyle=orthogonalEdgeStyle;rounded=0;orthogonalLoop=1;jettySize=auto;html=1;entryX=0.5;entryY=0;entryDx=0;entryDy=0;" parent="1" source="HMI9Q-J90Ie4Uta5KRQw-24" target="HMI9Q-J90Ie4Uta5KRQw-53" edge="1">
          <mxGeometry relative="1" as="geometry">
            <mxPoint x="414" y="880" as="targetPoint" />
          </mxGeometry>
        </mxCell>
        <mxCell id="HMI9Q-J90Ie4Uta5KRQw-24" value="Status login" style="strokeWidth=2;html=1;shape=mxgraph.flowchart.decision;whiteSpace=wrap;" parent="1" vertex="1">
          <mxGeometry x="364" y="750" width="100" height="90" as="geometry" />
        </mxCell>
        <mxCell id="HMI9Q-J90Ie4Uta5KRQw-31" style="edgeStyle=orthogonalEdgeStyle;rounded=0;orthogonalLoop=1;jettySize=auto;html=1;entryX=0;entryY=0.5;entryDx=0;entryDy=0;" parent="1" source="HMI9Q-J90Ie4Uta5KRQw-27" target="HMI9Q-J90Ie4Uta5KRQw-30" edge="1">
          <mxGeometry relative="1" as="geometry" />
        </mxCell>
        <mxCell id="HMI9Q-J90Ie4Uta5KRQw-27" value="admin?" style="strokeWidth=2;html=1;shape=mxgraph.flowchart.decision;whiteSpace=wrap;" parent="1" vertex="1">
          <mxGeometry x="1073" y="740" width="100" height="100" as="geometry" />
        </mxCell>
        <mxCell id="HMI9Q-J90Ie4Uta5KRQw-29" style="edgeStyle=orthogonalEdgeStyle;rounded=0;orthogonalLoop=1;jettySize=auto;html=1;entryX=0.5;entryY=0;entryDx=0;entryDy=0;entryPerimeter=0;" parent="1" source="HMI9Q-J90Ie4Uta5KRQw-13" target="HMI9Q-J90Ie4Uta5KRQw-27" edge="1">
          <mxGeometry relative="1" as="geometry" />
        </mxCell>
        <mxCell id="HMI9Q-J90Ie4Uta5KRQw-30" value="User Memasuki panel admin" style="rounded=1;whiteSpace=wrap;html=1;absoluteArcSize=1;arcSize=14;strokeWidth=2;" parent="1" vertex="1">
          <mxGeometry x="1306" y="755" width="150" height="70" as="geometry" />
        </mxCell>
        <mxCell id="HMI9Q-J90Ie4Uta5KRQw-32" value="iya" style="text;html=1;align=center;verticalAlign=middle;resizable=0;points=[];autosize=1;strokeColor=none;fillColor=none;" parent="1" vertex="1">
          <mxGeometry x="1186" y="755" width="40" height="30" as="geometry" />
        </mxCell>
        <mxCell id="HMI9Q-J90Ie4Uta5KRQw-34" value="Tidak" style="text;html=1;align=center;verticalAlign=middle;resizable=0;points=[];autosize=1;strokeColor=none;fillColor=none;" parent="1" vertex="1">
          <mxGeometry x="971" y="760" width="50" height="30" as="geometry" />
        </mxCell>
        <mxCell id="HMI9Q-J90Ie4Uta5KRQw-38" value="True" style="text;html=1;align=center;verticalAlign=middle;resizable=0;points=[];autosize=1;strokeColor=none;fillColor=none;" parent="1" vertex="1">
          <mxGeometry x="414" y="840" width="50" height="30" as="geometry" />
        </mxCell>
        <mxCell id="HMI9Q-J90Ie4Uta5KRQw-39" value="Menampilkan landing page" style="shape=parallelogram;html=1;strokeWidth=2;perimeter=parallelogramPerimeter;whiteSpace=wrap;rounded=1;arcSize=12;size=0.23;fontSize=12;" parent="1" vertex="1">
          <mxGeometry x="-1561" y="990" width="210" height="70" as="geometry" />
        </mxCell>
        <mxCell id="HMI9Q-J90Ie4Uta5KRQw-51" style="edgeStyle=orthogonalEdgeStyle;rounded=0;orthogonalLoop=1;jettySize=auto;html=1;entryX=1;entryY=0.5;entryDx=0;entryDy=0;" parent="1" source="HMI9Q-J90Ie4Uta5KRQw-42" target="HMI9Q-J90Ie4Uta5KRQw-50" edge="1">
          <mxGeometry relative="1" as="geometry" />
        </mxCell>
        <mxCell id="HMI9Q-J90Ie4Uta5KRQw-42" value="User menombol tentang kami" style="rounded=1;whiteSpace=wrap;html=1;absoluteArcSize=1;arcSize=14;strokeWidth=2;" parent="1" vertex="1">
          <mxGeometry x="160" y="645" width="150" height="70" as="geometry" />
        </mxCell>
        <mxCell id="HMI9Q-J90Ie4Uta5KRQw-48" value="Halaman login" style="shape=parallelogram;html=1;strokeWidth=2;perimeter=parallelogramPerimeter;whiteSpace=wrap;rounded=1;arcSize=12;size=0.23;" parent="1" vertex="1">
          <mxGeometry x="856" y="400" width="150" height="60" as="geometry" />
        </mxCell>
        <mxCell id="HMI9Q-J90Ie4Uta5KRQw-50" value="Halaman AboutMe" style="shape=parallelogram;html=1;strokeWidth=2;perimeter=parallelogramPerimeter;whiteSpace=wrap;rounded=1;arcSize=12;size=0.23;" parent="1" vertex="1">
          <mxGeometry x="-40" y="650" width="150" height="60" as="geometry" />
        </mxCell>
        <mxCell id="HMI9Q-J90Ie4Uta5KRQw-76" style="edgeStyle=orthogonalEdgeStyle;rounded=0;orthogonalLoop=1;jettySize=auto;html=1;" parent="1" source="HMI9Q-J90Ie4Uta5KRQw-52" target="HMI9Q-J90Ie4Uta5KRQw-75" edge="1">
          <mxGeometry relative="1" as="geometry" />
        </mxCell>
        <mxCell id="HMI9Q-J90Ie4Uta5KRQw-78" style="edgeStyle=orthogonalEdgeStyle;rounded=0;orthogonalLoop=1;jettySize=auto;html=1;entryX=0.566;entryY=0.006;entryDx=0;entryDy=0;entryPerimeter=0;" parent="1" source="HMI9Q-J90Ie4Uta5KRQw-52" target="HMI9Q-J90Ie4Uta5KRQw-79" edge="1">
          <mxGeometry relative="1" as="geometry">
            <mxPoint x="460" y="1210" as="targetPoint" />
          </mxGeometry>
        </mxCell>
        <mxCell id="HMI9Q-J90Ie4Uta5KRQw-52" value="belum like?" style="strokeWidth=2;html=1;shape=mxgraph.flowchart.decision;whiteSpace=wrap;" parent="1" vertex="1">
          <mxGeometry x="364" y="1300" width="100" height="90" as="geometry" />
        </mxCell>
        <mxCell id="HMI9Q-J90Ie4Uta5KRQw-56" value="" style="edgeStyle=orthogonalEdgeStyle;rounded=0;orthogonalLoop=1;jettySize=auto;html=1;entryX=0.99;entryY=0.498;entryDx=0;entryDy=0;entryPerimeter=0;" parent="1" target="HMI9Q-J90Ie4Uta5KRQw-55" edge="1">
          <mxGeometry relative="1" as="geometry">
            <mxPoint x="345.7550000000001" y="915" as="sourcePoint" />
            <mxPoint x="124.24" y="865" as="targetPoint" />
            <Array as="points">
              <mxPoint x="231" y="915" />
              <mxPoint x="231" y="865" />
            </Array>
          </mxGeometry>
        </mxCell>
        <mxCell id="HMI9Q-J90Ie4Uta5KRQw-58" style="edgeStyle=orthogonalEdgeStyle;rounded=0;orthogonalLoop=1;jettySize=auto;html=1;entryX=0.5;entryY=0;entryDx=0;entryDy=0;" parent="1" source="HMI9Q-J90Ie4Uta5KRQw-53" target="HMI9Q-J90Ie4Uta5KRQw-57" edge="1">
          <mxGeometry relative="1" as="geometry" />
        </mxCell>
        <mxCell id="HMI9Q-J90Ie4Uta5KRQw-60" style="edgeStyle=orthogonalEdgeStyle;rounded=0;orthogonalLoop=1;jettySize=auto;html=1;entryX=0.5;entryY=0;entryDx=0;entryDy=0;" parent="1" source="HMI9Q-J90Ie4Uta5KRQw-53" target="HMI9Q-J90Ie4Uta5KRQw-59" edge="1">
          <mxGeometry relative="1" as="geometry">
            <Array as="points">
              <mxPoint x="235" y="915" />
            </Array>
          </mxGeometry>
        </mxCell>
        <mxCell id="HMI9Q-J90Ie4Uta5KRQw-70" style="edgeStyle=orthogonalEdgeStyle;rounded=0;orthogonalLoop=1;jettySize=auto;html=1;entryX=1;entryY=0.5;entryDx=0;entryDy=0;" parent="1" source="HMI9Q-J90Ie4Uta5KRQw-53" target="HMI9Q-J90Ie4Uta5KRQw-69" edge="1">
          <mxGeometry relative="1" as="geometry" />
        </mxCell>
        <mxCell id="HMI9Q-J90Ie4Uta5KRQw-73" style="edgeStyle=orthogonalEdgeStyle;rounded=0;orthogonalLoop=1;jettySize=auto;html=1;entryX=0.5;entryY=0;entryDx=0;entryDy=0;" parent="1" source="HMI9Q-J90Ie4Uta5KRQw-53" target="HMI9Q-J90Ie4Uta5KRQw-72" edge="1">
          <mxGeometry relative="1" as="geometry" />
        </mxCell>
        <mxCell id="HMI9Q-J90Ie4Uta5KRQw-82" style="edgeStyle=orthogonalEdgeStyle;rounded=0;orthogonalLoop=1;jettySize=auto;html=1;" parent="1" source="HMI9Q-J90Ie4Uta5KRQw-53" target="HMI9Q-J90Ie4Uta5KRQw-81" edge="1">
          <mxGeometry relative="1" as="geometry" />
        </mxCell>
        <mxCell id="HMI9Q-J90Ie4Uta5KRQw-53" value="Halaman Dashboard" style="shape=parallelogram;html=1;strokeWidth=2;perimeter=parallelogramPerimeter;whiteSpace=wrap;rounded=1;arcSize=12;size=0.23;" parent="1" vertex="1">
          <mxGeometry x="333" y="880" width="161" height="70" as="geometry" />
        </mxCell>
        <mxCell id="HMI9Q-J90Ie4Uta5KRQw-67" style="edgeStyle=orthogonalEdgeStyle;rounded=0;orthogonalLoop=1;jettySize=auto;html=1;entryX=0;entryY=0.25;entryDx=0;entryDy=0;" parent="1" source="HMI9Q-J90Ie4Uta5KRQw-55" target="HMI9Q-J90Ie4Uta5KRQw-53" edge="1">
          <mxGeometry relative="1" as="geometry">
            <mxPoint x="80" y="770" as="targetPoint" />
            <Array as="points">
              <mxPoint x="55" y="790" />
              <mxPoint x="310" y="790" />
              <mxPoint x="310" y="903" />
              <mxPoint x="358" y="903" />
            </Array>
          </mxGeometry>
        </mxCell>
        <mxCell id="HMI9Q-J90Ie4Uta5KRQw-55" value="User menambah postingan baru" style="rounded=1;whiteSpace=wrap;html=1;absoluteArcSize=1;arcSize=14;strokeWidth=2;" parent="1" vertex="1">
          <mxGeometry x="-20" y="830" width="150" height="70" as="geometry" />
        </mxCell>
        <mxCell id="HMI9Q-J90Ie4Uta5KRQw-62" style="edgeStyle=orthogonalEdgeStyle;rounded=0;orthogonalLoop=1;jettySize=auto;html=1;entryX=0.5;entryY=0;entryDx=0;entryDy=0;" parent="1" source="HMI9Q-J90Ie4Uta5KRQw-57" target="HMI9Q-J90Ie4Uta5KRQw-61" edge="1">
          <mxGeometry relative="1" as="geometry" />
        </mxCell>
        <mxCell id="HMI9Q-J90Ie4Uta5KRQw-57" value="User mengecek &quot;postingan saya&quot;" style="rounded=1;whiteSpace=wrap;html=1;absoluteArcSize=1;arcSize=14;strokeWidth=2;" parent="1" vertex="1">
          <mxGeometry x="540" y="1000" width="150" height="70" as="geometry" />
        </mxCell>
        <mxCell id="HMI9Q-J90Ie4Uta5KRQw-59" value="User melihat historynya" style="rounded=1;whiteSpace=wrap;html=1;absoluteArcSize=1;arcSize=14;strokeWidth=2;" parent="1" vertex="1">
          <mxGeometry x="160" y="1000" width="150" height="70" as="geometry" />
        </mxCell>
        <mxCell id="HMI9Q-J90Ie4Uta5KRQw-61" value="Halaman &quot;postingan saya&quot;" style="shape=parallelogram;html=1;strokeWidth=2;perimeter=parallelogramPerimeter;whiteSpace=wrap;rounded=1;arcSize=12;size=0.23;" parent="1" vertex="1">
          <mxGeometry x="517.25" y="1099" width="195.5" height="70" as="geometry" />
        </mxCell>
        <mxCell id="HMI9Q-J90Ie4Uta5KRQw-63" value="Halaman &quot;history&quot;" style="shape=parallelogram;html=1;strokeWidth=2;perimeter=parallelogramPerimeter;whiteSpace=wrap;rounded=1;arcSize=12;size=0.23;" parent="1" vertex="1">
          <mxGeometry x="130" y="1110" width="195.5" height="70" as="geometry" />
        </mxCell>
        <mxCell id="HMI9Q-J90Ie4Uta5KRQw-65" style="edgeStyle=orthogonalEdgeStyle;rounded=0;orthogonalLoop=1;jettySize=auto;html=1;entryX=0.5;entryY=0;entryDx=0;entryDy=0;" parent="1" source="HMI9Q-J90Ie4Uta5KRQw-59" target="HMI9Q-J90Ie4Uta5KRQw-63" edge="1">
          <mxGeometry relative="1" as="geometry">
            <Array as="points">
              <mxPoint x="228" y="1105" />
              <mxPoint x="228" y="1105" />
            </Array>
          </mxGeometry>
        </mxCell>
        <mxCell id="HMI9Q-J90Ie4Uta5KRQw-71" style="edgeStyle=orthogonalEdgeStyle;rounded=0;orthogonalLoop=1;jettySize=auto;html=1;entryX=0.25;entryY=0;entryDx=0;entryDy=0;exitX=0;exitY=0.5;exitDx=0;exitDy=0;" parent="1" source="HMI9Q-J90Ie4Uta5KRQw-69" target="HMI9Q-J90Ie4Uta5KRQw-53" edge="1">
          <mxGeometry relative="1" as="geometry">
            <Array as="points">
              <mxPoint x="-40" y="945" />
              <mxPoint x="-40" y="760" />
              <mxPoint x="350" y="760" />
              <mxPoint x="350" y="850" />
              <mxPoint x="373" y="850" />
            </Array>
          </mxGeometry>
        </mxCell>
        <mxCell id="HMI9Q-J90Ie4Uta5KRQw-69" value="Menghapus postingannya" style="rounded=1;whiteSpace=wrap;html=1;absoluteArcSize=1;arcSize=14;strokeWidth=2;" parent="1" vertex="1">
          <mxGeometry x="-20" y="910" width="150" height="70" as="geometry" />
        </mxCell>
        <mxCell id="HMI9Q-J90Ie4Uta5KRQw-72" value="User menombol like pada postingan orang lain atau postingan sendiri" style="rounded=1;whiteSpace=wrap;html=1;absoluteArcSize=1;arcSize=14;strokeWidth=2;" parent="1" vertex="1">
          <mxGeometry x="339" y="1200" width="150" height="70" as="geometry" />
        </mxCell>
        <mxCell id="HMI9Q-J90Ie4Uta5KRQw-74" style="edgeStyle=orthogonalEdgeStyle;rounded=0;orthogonalLoop=1;jettySize=auto;html=1;entryX=0.5;entryY=0;entryDx=0;entryDy=0;entryPerimeter=0;" parent="1" source="HMI9Q-J90Ie4Uta5KRQw-72" target="HMI9Q-J90Ie4Uta5KRQw-52" edge="1">
          <mxGeometry relative="1" as="geometry" />
        </mxCell>
        <mxCell id="HMI9Q-J90Ie4Uta5KRQw-75" value="like bertambah" style="shape=parallelogram;html=1;strokeWidth=2;perimeter=parallelogramPerimeter;whiteSpace=wrap;rounded=1;arcSize=12;size=0.23;" parent="1" vertex="1">
          <mxGeometry x="240" y="1430" width="161" height="70" as="geometry" />
        </mxCell>
        <mxCell id="HMI9Q-J90Ie4Uta5KRQw-77" value="belum" style="text;html=1;align=center;verticalAlign=middle;resizable=0;points=[];autosize=1;strokeColor=none;fillColor=none;" parent="1" vertex="1">
          <mxGeometry x="329" y="1380" width="60" height="30" as="geometry" />
        </mxCell>
        <mxCell id="HMI9Q-J90Ie4Uta5KRQw-79" value="like berkurang" style="shape=parallelogram;html=1;strokeWidth=2;perimeter=parallelogramPerimeter;whiteSpace=wrap;rounded=1;arcSize=12;size=0.23;" parent="1" vertex="1">
          <mxGeometry x="449" y="1430" width="161" height="70" as="geometry" />
        </mxCell>
        <mxCell id="HMI9Q-J90Ie4Uta5KRQw-80" value="sebelumnya sudah like" style="text;html=1;align=center;verticalAlign=middle;resizable=0;points=[];autosize=1;strokeColor=none;fillColor=none;fontSize=10;" parent="1" vertex="1">
          <mxGeometry x="418.5" y="1380" width="130" height="30" as="geometry" />
        </mxCell>
        <mxCell id="HMI9Q-J90Ie4Uta5KRQw-84" style="edgeStyle=orthogonalEdgeStyle;rounded=0;orthogonalLoop=1;jettySize=auto;html=1;" parent="1" source="HMI9Q-J90Ie4Uta5KRQw-81" target="HMI9Q-J90Ie4Uta5KRQw-83" edge="1">
          <mxGeometry relative="1" as="geometry" />
        </mxCell>
        <mxCell id="HMI9Q-J90Ie4Uta5KRQw-81" value="User menombol view details" style="rounded=1;whiteSpace=wrap;html=1;absoluteArcSize=1;arcSize=14;strokeWidth=2;" parent="1" vertex="1">
          <mxGeometry x="772" y="1000" width="150" height="70" as="geometry" />
        </mxCell>
        <mxCell id="HMI9Q-J90Ie4Uta5KRQw-86" style="edgeStyle=orthogonalEdgeStyle;rounded=0;orthogonalLoop=1;jettySize=auto;html=1;entryX=0.5;entryY=0;entryDx=0;entryDy=0;" parent="1" source="HMI9Q-J90Ie4Uta5KRQw-83" target="HMI9Q-J90Ie4Uta5KRQw-85" edge="1">
          <mxGeometry relative="1" as="geometry" />
        </mxCell>
        <mxCell id="HMI9Q-J90Ie4Uta5KRQw-83" value="Halaman detail (like dan komentar)" style="shape=parallelogram;html=1;strokeWidth=2;perimeter=parallelogramPerimeter;whiteSpace=wrap;rounded=1;arcSize=12;size=0.15468749999999998;fontSize=11;" parent="1" vertex="1">
          <mxGeometry x="827" y="1120" width="160" height="70" as="geometry" />
        </mxCell>
        <mxCell id="HMI9Q-J90Ie4Uta5KRQw-87" style="edgeStyle=orthogonalEdgeStyle;rounded=0;orthogonalLoop=1;jettySize=auto;html=1;entryX=1;entryY=0.5;entryDx=0;entryDy=0;exitX=1;exitY=0.5;exitDx=0;exitDy=0;" parent="1" source="HMI9Q-J90Ie4Uta5KRQw-85" target="HMI9Q-J90Ie4Uta5KRQw-83" edge="1">
          <mxGeometry relative="1" as="geometry">
            <Array as="points">
              <mxPoint x="1040" y="1305" />
              <mxPoint x="1040" y="1155" />
            </Array>
          </mxGeometry>
        </mxCell>
        <mxCell id="HMI9Q-J90Ie4Uta5KRQw-85" value="User mengomentari postingan" style="rounded=1;whiteSpace=wrap;html=1;absoluteArcSize=1;arcSize=14;strokeWidth=2;" parent="1" vertex="1">
          <mxGeometry x="832" y="1270" width="150" height="70" as="geometry" />
        </mxCell>
        <mxCell id="HMI9Q-J90Ie4Uta5KRQw-88" style="edgeStyle=orthogonalEdgeStyle;rounded=0;orthogonalLoop=1;jettySize=auto;html=1;entryX=0.999;entryY=0.575;entryDx=0;entryDy=0;entryPerimeter=0;" parent="1" source="HMI9Q-J90Ie4Uta5KRQw-83" target="HMI9Q-J90Ie4Uta5KRQw-72" edge="1">
          <mxGeometry relative="1" as="geometry">
            <Array as="points">
              <mxPoint x="730" y="1155" />
              <mxPoint x="730" y="1240" />
            </Array>
          </mxGeometry>
        </mxCell>
        <mxCell id="ea0i6UJMl8aY-2mFWfL6-3" style="edgeStyle=orthogonalEdgeStyle;rounded=0;orthogonalLoop=1;jettySize=auto;html=1;" edge="1" parent="1" source="ea0i6UJMl8aY-2mFWfL6-1" target="HMI9Q-J90Ie4Uta5KRQw-39">
          <mxGeometry relative="1" as="geometry" />
        </mxCell>
        <mxCell id="ea0i6UJMl8aY-2mFWfL6-1" value="Ada internet?" style="strokeWidth=2;html=1;shape=mxgraph.flowchart.decision;whiteSpace=wrap;" vertex="1" parent="1">
          <mxGeometry x="-1691.5" y="790" width="111" height="100" as="geometry" />
        </mxCell>
        <mxCell id="ea0i6UJMl8aY-2mFWfL6-4" value="iya" style="text;html=1;align=center;verticalAlign=middle;resizable=0;points=[];autosize=1;strokeColor=none;fillColor=none;" vertex="1" parent="1">
          <mxGeometry x="-1561" y="810" width="40" height="30" as="geometry" />
        </mxCell>
        <mxCell id="ea0i6UJMl8aY-2mFWfL6-8" value="Tidak menampilkan apa apa" style="shape=parallelogram;html=1;strokeWidth=2;perimeter=parallelogramPerimeter;whiteSpace=wrap;rounded=1;arcSize=12;size=0.23;" vertex="1" parent="1">
          <mxGeometry x="-1901" y="980" width="220" height="90" as="geometry" />
        </mxCell>
        <mxCell id="ea0i6UJMl8aY-2mFWfL6-10" value="TIdak" style="text;html=1;align=center;verticalAlign=middle;resizable=0;points=[];autosize=1;strokeColor=none;fillColor=none;" vertex="1" parent="1">
          <mxGeometry x="-1761" y="810" width="50" height="30" as="geometry" />
        </mxCell>
        <mxCell id="ea0i6UJMl8aY-2mFWfL6-12" style="edgeStyle=orthogonalEdgeStyle;rounded=0;orthogonalLoop=1;jettySize=auto;html=1;" edge="1" parent="1" source="ea0i6UJMl8aY-2mFWfL6-1">
          <mxGeometry relative="1" as="geometry">
            <mxPoint x="-1780" y="980" as="targetPoint" />
          </mxGeometry>
        </mxCell>
        <mxCell id="ea0i6UJMl8aY-2mFWfL6-14" style="edgeStyle=orthogonalEdgeStyle;rounded=0;orthogonalLoop=1;jettySize=auto;html=1;entryX=0.5;entryY=0;entryDx=0;entryDy=0;entryPerimeter=0;" edge="1" parent="1" source="HMI9Q-J90Ie4Uta5KRQw-2" target="ea0i6UJMl8aY-2mFWfL6-1">
          <mxGeometry relative="1" as="geometry" />
        </mxCell>
        <mxCell id="ea0i6UJMl8aY-2mFWfL6-16" style="edgeStyle=orthogonalEdgeStyle;rounded=0;orthogonalLoop=1;jettySize=auto;html=1;entryX=0.5;entryY=0;entryDx=0;entryDy=0;" edge="1" parent="1" source="HMI9Q-J90Ie4Uta5KRQw-39" target="ea0i6UJMl8aY-2mFWfL6-15">
          <mxGeometry relative="1" as="geometry" />
        </mxCell>
        <mxCell id="ea0i6UJMl8aY-2mFWfL6-18" value="" style="group" vertex="1" connectable="0" parent="1">
          <mxGeometry x="-1571" y="1105" width="230" height="80" as="geometry" />
        </mxCell>
        <mxCell id="ea0i6UJMl8aY-2mFWfL6-15" value="" style="verticalLabelPosition=middle;verticalAlign=middle;html=1;shape=trapezoid;perimeter=trapezoidPerimeter;whiteSpace=wrap;size=0.23;arcSize=10;flipV=1;labelPosition=center;align=center;" vertex="1" parent="ea0i6UJMl8aY-2mFWfL6-18">
          <mxGeometry width="230" height="80" as="geometry" />
        </mxCell>
        <mxCell id="ea0i6UJMl8aY-2mFWfL6-17" value="User mencoba membaca semua yg ada, &lt;div&gt;halaman utama, about, informasi&lt;/div&gt;" style="text;html=1;align=center;verticalAlign=middle;resizable=0;points=[];autosize=1;strokeColor=none;fillColor=none;fontSize=9;" vertex="1" parent="ea0i6UJMl8aY-2mFWfL6-18">
          <mxGeometry x="20" y="20" width="190" height="40" as="geometry" />
        </mxCell>
        <mxCell id="ea0i6UJMl8aY-2mFWfL6-20" value="Halaman yang dipilih" style="shape=parallelogram;html=1;strokeWidth=2;perimeter=parallelogramPerimeter;whiteSpace=wrap;rounded=1;arcSize=12;size=0.23;fontSize=12;" vertex="1" parent="1">
          <mxGeometry x="-1270" y="1102.5" width="170" height="85" as="geometry" />
        </mxCell>
        <mxCell id="ea0i6UJMl8aY-2mFWfL6-19" style="edgeStyle=orthogonalEdgeStyle;rounded=0;orthogonalLoop=1;jettySize=auto;html=1;entryX=0;entryY=0.5;entryDx=0;entryDy=0;" edge="1" parent="1" source="ea0i6UJMl8aY-2mFWfL6-15" target="ea0i6UJMl8aY-2mFWfL6-20">
          <mxGeometry relative="1" as="geometry">
            <mxPoint x="-1280" y="1110" as="targetPoint" />
          </mxGeometry>
        </mxCell>
        <mxCell id="ea0i6UJMl8aY-2mFWfL6-21" value="" style="group" vertex="1" connectable="0" parent="1">
          <mxGeometry x="-1571" y="1230" width="230" height="80" as="geometry" />
        </mxCell>
        <mxCell id="ea0i6UJMl8aY-2mFWfL6-22" value="" style="verticalLabelPosition=middle;verticalAlign=middle;html=1;shape=trapezoid;perimeter=trapezoidPerimeter;whiteSpace=wrap;size=0.23;arcSize=10;flipV=1;labelPosition=center;align=center;" vertex="1" parent="ea0i6UJMl8aY-2mFWfL6-21">
          <mxGeometry width="230" height="80" as="geometry" />
        </mxCell>
        <mxCell id="ea0i6UJMl8aY-2mFWfL6-23" value="User menombol dashboard" style="text;html=1;align=center;verticalAlign=middle;resizable=0;points=[];autosize=1;strokeColor=none;fillColor=none;fontSize=9;" vertex="1" parent="ea0i6UJMl8aY-2mFWfL6-21">
          <mxGeometry x="50" y="30" width="130" height="20" as="geometry" />
        </mxCell>
        <mxCell id="ea0i6UJMl8aY-2mFWfL6-24" style="edgeStyle=orthogonalEdgeStyle;rounded=0;orthogonalLoop=1;jettySize=auto;html=1;" edge="1" parent="1" source="ea0i6UJMl8aY-2mFWfL6-15" target="ea0i6UJMl8aY-2mFWfL6-22">
          <mxGeometry relative="1" as="geometry" />
        </mxCell>
        <mxCell id="ea0i6UJMl8aY-2mFWfL6-29" style="edgeStyle=orthogonalEdgeStyle;rounded=0;orthogonalLoop=1;jettySize=auto;html=1;entryX=0.5;entryY=0;entryDx=0;entryDy=0;entryPerimeter=0;" edge="1" parent="1" source="ea0i6UJMl8aY-2mFWfL6-26" target="ea0i6UJMl8aY-2mFWfL6-77">
          <mxGeometry relative="1" as="geometry">
            <mxPoint x="-1456" y="1480" as="targetPoint" />
          </mxGeometry>
        </mxCell>
        <mxCell id="ea0i6UJMl8aY-2mFWfL6-30" style="edgeStyle=orthogonalEdgeStyle;rounded=0;orthogonalLoop=1;jettySize=auto;html=1;entryX=0.855;entryY=0.145;entryDx=0;entryDy=0;entryPerimeter=0;" edge="1" parent="1" target="ea0i6UJMl8aY-2mFWfL6-68">
          <mxGeometry relative="1" as="geometry">
            <mxPoint x="-1496.45" y="1380.0042857142857" as="sourcePoint" />
            <mxPoint x="-1600" y="1230" as="targetPoint" />
            <Array as="points">
              <mxPoint x="-1600" y="1380" />
              <mxPoint x="-1600" y="1239" />
            </Array>
          </mxGeometry>
        </mxCell>
        <mxCell id="ea0i6UJMl8aY-2mFWfL6-26" value="Sudah login?" style="strokeWidth=2;html=1;shape=mxgraph.flowchart.decision;whiteSpace=wrap;" vertex="1" parent="1">
          <mxGeometry x="-1506" y="1327.5" width="100" height="100" as="geometry" />
        </mxCell>
        <mxCell id="ea0i6UJMl8aY-2mFWfL6-28" style="edgeStyle=orthogonalEdgeStyle;rounded=0;orthogonalLoop=1;jettySize=auto;html=1;" edge="1" parent="1" source="ea0i6UJMl8aY-2mFWfL6-22" target="ea0i6UJMl8aY-2mFWfL6-26">
          <mxGeometry relative="1" as="geometry" />
        </mxCell>
        <mxCell id="ea0i6UJMl8aY-2mFWfL6-31" value="Sudah" style="text;html=1;align=center;verticalAlign=middle;resizable=0;points=[];autosize=1;strokeColor=none;fillColor=none;" vertex="1" parent="1">
          <mxGeometry x="-1460" y="1430" width="60" height="30" as="geometry" />
        </mxCell>
        <mxCell id="ea0i6UJMl8aY-2mFWfL6-70" value="" style="group" vertex="1" connectable="0" parent="1">
          <mxGeometry x="-1750" y="1230" width="80" height="60" as="geometry" />
        </mxCell>
        <mxCell id="ea0i6UJMl8aY-2mFWfL6-68" value="" style="verticalLabelPosition=bottom;verticalAlign=top;html=1;shape=mxgraph.flowchart.on-page_reference;" vertex="1" parent="ea0i6UJMl8aY-2mFWfL6-70">
          <mxGeometry x="10" width="60" height="60" as="geometry" />
        </mxCell>
        <mxCell id="ea0i6UJMl8aY-2mFWfL6-69" value="Proses Login" style="text;html=1;align=center;verticalAlign=middle;resizable=0;points=[];autosize=1;strokeColor=none;fillColor=none;fontSize=8;" vertex="1" parent="ea0i6UJMl8aY-2mFWfL6-70">
          <mxGeometry x="5" y="20" width="70" height="20" as="geometry" />
        </mxCell>
        <mxCell id="ea0i6UJMl8aY-2mFWfL6-76" value="" style="group" vertex="1" connectable="0" parent="1">
          <mxGeometry x="-1496" y="1500" width="80" height="60" as="geometry" />
        </mxCell>
        <mxCell id="ea0i6UJMl8aY-2mFWfL6-77" value="" style="verticalLabelPosition=bottom;verticalAlign=top;html=1;shape=mxgraph.flowchart.on-page_reference;" vertex="1" parent="ea0i6UJMl8aY-2mFWfL6-76">
          <mxGeometry x="10" width="60" height="60" as="geometry" />
        </mxCell>
        <mxCell id="ea0i6UJMl8aY-2mFWfL6-78" value="Dashboard" style="text;html=1;align=center;verticalAlign=middle;resizable=0;points=[];autosize=1;strokeColor=none;fillColor=none;fontSize=8;" vertex="1" parent="ea0i6UJMl8aY-2mFWfL6-76">
          <mxGeometry x="10" y="20" width="60" height="20" as="geometry" />
        </mxCell>
        <mxCell id="ea0i6UJMl8aY-2mFWfL6-85" value="Belum" style="text;html=1;align=center;verticalAlign=middle;resizable=0;points=[];autosize=1;strokeColor=none;fillColor=none;" vertex="1" parent="1">
          <mxGeometry x="-1581" y="1340" width="60" height="30" as="geometry" />
        </mxCell>
        <mxCell id="ea0i6UJMl8aY-2mFWfL6-86" value="" style="group" vertex="1" connectable="0" parent="1">
          <mxGeometry x="-1811.83" y="1630" width="763.6500000000001" height="752" as="geometry" />
        </mxCell>
        <mxCell id="ea0i6UJMl8aY-2mFWfL6-67" value="" style="group" vertex="1" connectable="0" parent="ea0i6UJMl8aY-2mFWfL6-86">
          <mxGeometry y="117" width="665.3004484304934" height="635" as="geometry" />
        </mxCell>
        <mxCell id="ea0i6UJMl8aY-2mFWfL6-47" style="edgeStyle=orthogonalEdgeStyle;rounded=0;orthogonalLoop=1;jettySize=auto;html=1;entryX=0.5;entryY=0;entryDx=0;entryDy=0;exitX=1;exitY=0.5;exitDx=0;exitDy=0;exitPerimeter=0;" edge="1" parent="ea0i6UJMl8aY-2mFWfL6-67" source="ea0i6UJMl8aY-2mFWfL6-33" target="ea0i6UJMl8aY-2mFWfL6-45">
          <mxGeometry relative="1" as="geometry" />
        </mxCell>
        <mxCell id="ea0i6UJMl8aY-2mFWfL6-27" value="Halaman login" style="shape=parallelogram;html=1;strokeWidth=2;perimeter=parallelogramPerimeter;whiteSpace=wrap;rounded=1;arcSize=12;size=0.23;fontSize=12;" vertex="1" parent="ea0i6UJMl8aY-2mFWfL6-67">
          <mxGeometry x="400" width="170" height="85" as="geometry" />
        </mxCell>
        <mxCell id="ea0i6UJMl8aY-2mFWfL6-38" style="edgeStyle=orthogonalEdgeStyle;rounded=0;orthogonalLoop=1;jettySize=auto;html=1;entryX=0.5;entryY=0;entryDx=0;entryDy=0;exitX=0;exitY=0.5;exitDx=0;exitDy=0;exitPerimeter=0;" edge="1" parent="ea0i6UJMl8aY-2mFWfL6-67" source="ea0i6UJMl8aY-2mFWfL6-33" target="ea0i6UJMl8aY-2mFWfL6-36">
          <mxGeometry relative="1" as="geometry" />
        </mxCell>
        <mxCell id="ea0i6UJMl8aY-2mFWfL6-33" value="Punya akun?" style="strokeWidth=2;html=1;shape=mxgraph.flowchart.decision;whiteSpace=wrap;" vertex="1" parent="ea0i6UJMl8aY-2mFWfL6-67">
          <mxGeometry x="339" y="130" width="100" height="100" as="geometry" />
        </mxCell>
        <mxCell id="ea0i6UJMl8aY-2mFWfL6-34" style="edgeStyle=orthogonalEdgeStyle;rounded=0;orthogonalLoop=1;jettySize=auto;html=1;entryX=0.5;entryY=0;entryDx=0;entryDy=0;entryPerimeter=0;" edge="1" parent="ea0i6UJMl8aY-2mFWfL6-67" source="ea0i6UJMl8aY-2mFWfL6-27" target="ea0i6UJMl8aY-2mFWfL6-33">
          <mxGeometry relative="1" as="geometry">
            <mxPoint x="340" y="162" as="targetPoint" />
          </mxGeometry>
        </mxCell>
        <mxCell id="ea0i6UJMl8aY-2mFWfL6-35" value="" style="group" vertex="1" connectable="0" parent="ea0i6UJMl8aY-2mFWfL6-67">
          <mxGeometry x="70" y="275" width="200" height="80" as="geometry" />
        </mxCell>
        <mxCell id="ea0i6UJMl8aY-2mFWfL6-36" value="" style="verticalLabelPosition=middle;verticalAlign=middle;html=1;shape=trapezoid;perimeter=trapezoidPerimeter;whiteSpace=wrap;size=0.23;arcSize=10;flipV=1;labelPosition=center;align=center;" vertex="1" parent="ea0i6UJMl8aY-2mFWfL6-35">
          <mxGeometry x="13.043478260869565" width="173.91304347826087" height="80" as="geometry" />
        </mxCell>
        <mxCell id="ea0i6UJMl8aY-2mFWfL6-37" value="User menombol daftar" style="text;html=1;align=center;verticalAlign=middle;resizable=0;points=[];autosize=1;strokeColor=none;fillColor=none;fontSize=9;" vertex="1" parent="ea0i6UJMl8aY-2mFWfL6-35">
          <mxGeometry x="45.003913043478256" y="30" width="110" height="20" as="geometry" />
        </mxCell>
        <mxCell id="ea0i6UJMl8aY-2mFWfL6-44" value="" style="group" vertex="1" connectable="0" parent="ea0i6UJMl8aY-2mFWfL6-67">
          <mxGeometry x="390" y="267.5" width="201" height="80" as="geometry" />
        </mxCell>
        <mxCell id="ea0i6UJMl8aY-2mFWfL6-45" value="" style="verticalLabelPosition=middle;verticalAlign=middle;html=1;shape=trapezoid;perimeter=trapezoidPerimeter;whiteSpace=wrap;size=0.23;arcSize=10;flipV=1;labelPosition=center;align=center;" vertex="1" parent="ea0i6UJMl8aY-2mFWfL6-44">
          <mxGeometry x="11.92" width="178.08" height="80" as="geometry" />
        </mxCell>
        <mxCell id="ea0i6UJMl8aY-2mFWfL6-46" value="User menginputkan&amp;nbsp;&lt;span style=&quot;background-color: transparent; color: light-dark(rgb(0, 0, 0), rgb(255, 255, 255));&quot;&gt;Username/email&amp;nbsp;&lt;/span&gt;&lt;div&gt;&lt;span style=&quot;background-color: transparent; color: light-dark(rgb(0, 0, 0), rgb(255, 255, 255));&quot;&gt;dan passwordnya&lt;/span&gt;&lt;/div&gt;" style="text;html=1;align=center;verticalAlign=middle;resizable=0;points=[];autosize=1;strokeColor=none;fillColor=none;fontSize=8;" vertex="1" parent="ea0i6UJMl8aY-2mFWfL6-44">
          <mxGeometry x="20.502178439513916" y="25" width="160" height="30" as="geometry" />
        </mxCell>
        <mxCell id="ea0i6UJMl8aY-2mFWfL6-63" style="edgeStyle=orthogonalEdgeStyle;rounded=0;orthogonalLoop=1;jettySize=auto;html=1;" edge="1" parent="ea0i6UJMl8aY-2mFWfL6-67" source="ea0i6UJMl8aY-2mFWfL6-50" target="ea0i6UJMl8aY-2mFWfL6-61">
          <mxGeometry relative="1" as="geometry" />
        </mxCell>
        <mxCell id="ea0i6UJMl8aY-2mFWfL6-50" value="Halaman pendaftaran&lt;div&gt;atau registrasi&lt;/div&gt;" style="shape=parallelogram;html=1;strokeWidth=2;perimeter=parallelogramPerimeter;whiteSpace=wrap;rounded=1;arcSize=12;size=0.23;fontSize=12;" vertex="1" parent="ea0i6UJMl8aY-2mFWfL6-67">
          <mxGeometry x="85" y="410" width="170" height="85" as="geometry" />
        </mxCell>
        <mxCell id="ea0i6UJMl8aY-2mFWfL6-51" style="edgeStyle=orthogonalEdgeStyle;rounded=0;orthogonalLoop=1;jettySize=auto;html=1;" edge="1" parent="ea0i6UJMl8aY-2mFWfL6-67" source="ea0i6UJMl8aY-2mFWfL6-36" target="ea0i6UJMl8aY-2mFWfL6-50">
          <mxGeometry relative="1" as="geometry" />
        </mxCell>
        <mxCell id="ea0i6UJMl8aY-2mFWfL6-52" value="Mencocokan username/email dan password ke database" style="rounded=1;whiteSpace=wrap;html=1;absoluteArcSize=1;arcSize=14;strokeWidth=2;" vertex="1" parent="ea0i6UJMl8aY-2mFWfL6-67">
          <mxGeometry x="415.5" y="412.5" width="150" height="70" as="geometry" />
        </mxCell>
        <mxCell id="ea0i6UJMl8aY-2mFWfL6-53" style="edgeStyle=orthogonalEdgeStyle;rounded=0;orthogonalLoop=1;jettySize=auto;html=1;" edge="1" parent="ea0i6UJMl8aY-2mFWfL6-67" source="ea0i6UJMl8aY-2mFWfL6-45" target="ea0i6UJMl8aY-2mFWfL6-52">
          <mxGeometry relative="1" as="geometry" />
        </mxCell>
        <mxCell id="ea0i6UJMl8aY-2mFWfL6-54" value="Cocok?" style="strokeWidth=2;html=1;shape=mxgraph.flowchart.decision;whiteSpace=wrap;" vertex="1" parent="ea0i6UJMl8aY-2mFWfL6-67">
          <mxGeometry x="440.5" y="515" width="100" height="100" as="geometry" />
        </mxCell>
        <mxCell id="ea0i6UJMl8aY-2mFWfL6-55" style="edgeStyle=orthogonalEdgeStyle;rounded=0;orthogonalLoop=1;jettySize=auto;html=1;entryX=0.5;entryY=0;entryDx=0;entryDy=0;entryPerimeter=0;" edge="1" parent="ea0i6UJMl8aY-2mFWfL6-67" source="ea0i6UJMl8aY-2mFWfL6-52" target="ea0i6UJMl8aY-2mFWfL6-54">
          <mxGeometry relative="1" as="geometry" />
        </mxCell>
        <mxCell id="ea0i6UJMl8aY-2mFWfL6-57" value="iya" style="text;html=1;align=center;verticalAlign=middle;resizable=0;points=[];autosize=1;strokeColor=none;fillColor=none;" vertex="1" parent="ea0i6UJMl8aY-2mFWfL6-67">
          <mxGeometry x="551" y="533" width="40" height="30" as="geometry" />
        </mxCell>
        <mxCell id="ea0i6UJMl8aY-2mFWfL6-58" style="edgeStyle=orthogonalEdgeStyle;rounded=0;orthogonalLoop=1;jettySize=auto;html=1;entryX=0.035;entryY=0.874;entryDx=0;entryDy=0;entryPerimeter=0;exitX=0;exitY=0.5;exitDx=0;exitDy=0;exitPerimeter=0;" edge="1" parent="ea0i6UJMl8aY-2mFWfL6-67" source="ea0i6UJMl8aY-2mFWfL6-54" target="ea0i6UJMl8aY-2mFWfL6-45">
          <mxGeometry relative="1" as="geometry">
            <Array as="points">
              <mxPoint x="400" y="565" />
              <mxPoint x="400" y="278" />
            </Array>
          </mxGeometry>
        </mxCell>
        <mxCell id="ea0i6UJMl8aY-2mFWfL6-59" value="Tidak" style="text;html=1;align=center;verticalAlign=middle;resizable=0;points=[];autosize=1;strokeColor=none;fillColor=none;" vertex="1" parent="ea0i6UJMl8aY-2mFWfL6-67">
          <mxGeometry x="395.5" y="533" width="50" height="30" as="geometry" />
        </mxCell>
        <mxCell id="ea0i6UJMl8aY-2mFWfL6-60" value="" style="group" vertex="1" connectable="0" parent="ea0i6UJMl8aY-2mFWfL6-67">
          <mxGeometry x="65" y="555" width="210" height="80" as="geometry" />
        </mxCell>
        <mxCell id="ea0i6UJMl8aY-2mFWfL6-61" value="" style="verticalLabelPosition=middle;verticalAlign=middle;html=1;shape=trapezoid;perimeter=trapezoidPerimeter;whiteSpace=wrap;size=0.23;arcSize=10;flipV=1;labelPosition=center;align=center;" vertex="1" parent="ea0i6UJMl8aY-2mFWfL6-60">
          <mxGeometry x="12.45373134328358" width="186.05373134328357" height="80" as="geometry" />
        </mxCell>
        <mxCell id="ea0i6UJMl8aY-2mFWfL6-62" value="menginput nama lengkap, email,&amp;nbsp;&lt;div&gt;password,&amp;nbsp;&lt;span style=&quot;background-color: transparent; color: light-dark(rgb(0, 0, 0), rgb(255, 255, 255));&quot;&gt;dan konfirmasi password&lt;/span&gt;&lt;/div&gt;" style="text;html=1;align=center;verticalAlign=middle;resizable=0;points=[];autosize=1;strokeColor=none;fillColor=none;fontSize=8;" vertex="1" parent="ea0i6UJMl8aY-2mFWfL6-60">
          <mxGeometry x="30.00406702635782" y="25" width="150" height="30" as="geometry" />
        </mxCell>
        <mxCell id="ea0i6UJMl8aY-2mFWfL6-65" style="edgeStyle=orthogonalEdgeStyle;rounded=0;orthogonalLoop=1;jettySize=auto;html=1;entryX=0;entryY=0.25;entryDx=0;entryDy=0;exitX=0.054;exitY=0.761;exitDx=0;exitDy=0;exitPerimeter=0;" edge="1" parent="ea0i6UJMl8aY-2mFWfL6-67" source="ea0i6UJMl8aY-2mFWfL6-61" target="ea0i6UJMl8aY-2mFWfL6-27">
          <mxGeometry relative="1" as="geometry">
            <mxPoint x="20" y="94.99999999999977" as="targetPoint" />
            <mxPoint x="-20" y="625" as="sourcePoint" />
            <Array as="points">
              <mxPoint y="574" />
              <mxPoint y="28" />
            </Array>
          </mxGeometry>
        </mxCell>
        <mxCell id="ea0i6UJMl8aY-2mFWfL6-72" value="" style="group" vertex="1" connectable="0" parent="ea0i6UJMl8aY-2mFWfL6-86">
          <mxGeometry x="483.6500000000001" width="80" height="60" as="geometry" />
        </mxCell>
        <mxCell id="ea0i6UJMl8aY-2mFWfL6-73" value="" style="verticalLabelPosition=bottom;verticalAlign=top;html=1;shape=mxgraph.flowchart.on-page_reference;" vertex="1" parent="ea0i6UJMl8aY-2mFWfL6-72">
          <mxGeometry x="10" width="60" height="60" as="geometry" />
        </mxCell>
        <mxCell id="ea0i6UJMl8aY-2mFWfL6-74" value="Proses Login" style="text;html=1;align=center;verticalAlign=middle;resizable=0;points=[];autosize=1;strokeColor=none;fillColor=none;fontSize=8;" vertex="1" parent="ea0i6UJMl8aY-2mFWfL6-72">
          <mxGeometry x="5" y="20" width="70" height="20" as="geometry" />
        </mxCell>
        <mxCell id="ea0i6UJMl8aY-2mFWfL6-75" style="edgeStyle=orthogonalEdgeStyle;rounded=0;orthogonalLoop=1;jettySize=auto;html=1;entryX=0.75;entryY=0;entryDx=0;entryDy=0;" edge="1" parent="ea0i6UJMl8aY-2mFWfL6-86" source="ea0i6UJMl8aY-2mFWfL6-73" target="ea0i6UJMl8aY-2mFWfL6-27">
          <mxGeometry relative="1" as="geometry">
            <Array as="points">
              <mxPoint x="527.6500000000001" y="87" />
            </Array>
          </mxGeometry>
        </mxCell>
        <mxCell id="ea0i6UJMl8aY-2mFWfL6-79" value="" style="group" vertex="1" connectable="0" parent="ea0i6UJMl8aY-2mFWfL6-86">
          <mxGeometry x="683.6500000000001" y="377" width="80" height="60" as="geometry" />
        </mxCell>
        <mxCell id="ea0i6UJMl8aY-2mFWfL6-84" value="" style="group" vertex="1" connectable="0" parent="ea0i6UJMl8aY-2mFWfL6-79">
          <mxGeometry x="10" width="60" height="60" as="geometry" />
        </mxCell>
        <mxCell id="ea0i6UJMl8aY-2mFWfL6-80" value="" style="verticalLabelPosition=bottom;verticalAlign=top;html=1;shape=mxgraph.flowchart.on-page_reference;" vertex="1" parent="ea0i6UJMl8aY-2mFWfL6-84">
          <mxGeometry width="60" height="60" as="geometry" />
        </mxCell>
        <mxCell id="ea0i6UJMl8aY-2mFWfL6-81" value="Dashboard" style="text;html=1;align=center;verticalAlign=middle;resizable=0;points=[];autosize=1;strokeColor=none;fillColor=none;fontSize=8;" vertex="1" parent="ea0i6UJMl8aY-2mFWfL6-84">
          <mxGeometry y="20" width="60" height="20" as="geometry" />
        </mxCell>
        <mxCell id="ea0i6UJMl8aY-2mFWfL6-56" style="edgeStyle=orthogonalEdgeStyle;rounded=0;orthogonalLoop=1;jettySize=auto;html=1;entryX=0;entryY=0.5;entryDx=0;entryDy=0;entryPerimeter=0;" edge="1" parent="ea0i6UJMl8aY-2mFWfL6-86" source="ea0i6UJMl8aY-2mFWfL6-54" target="ea0i6UJMl8aY-2mFWfL6-80">
          <mxGeometry relative="1" as="geometry">
            <mxPoint x="665.3004484304934" y="409.8251121076232" as="targetPoint" />
            <Array as="points">
              <mxPoint x="609.6500000000001" y="682" />
              <mxPoint x="609.6500000000001" y="407" />
            </Array>
          </mxGeometry>
        </mxCell>
        <mxCell id="ea0i6UJMl8aY-2mFWfL6-87" value="" style="group" vertex="1" connectable="0" parent="1">
          <mxGeometry x="-1440.9999999999998" y="2510" width="80" height="60" as="geometry" />
        </mxCell>
        <mxCell id="ea0i6UJMl8aY-2mFWfL6-88" value="" style="group" vertex="1" connectable="0" parent="ea0i6UJMl8aY-2mFWfL6-87">
          <mxGeometry x="10" width="60" height="60" as="geometry" />
        </mxCell>
        <mxCell id="ea0i6UJMl8aY-2mFWfL6-89" value="" style="verticalLabelPosition=bottom;verticalAlign=top;html=1;shape=mxgraph.flowchart.on-page_reference;" vertex="1" parent="ea0i6UJMl8aY-2mFWfL6-88">
          <mxGeometry width="60" height="60" as="geometry" />
        </mxCell>
        <mxCell id="ea0i6UJMl8aY-2mFWfL6-90" value="Dashboard" style="text;html=1;align=center;verticalAlign=middle;resizable=0;points=[];autosize=1;strokeColor=none;fillColor=none;fontSize=8;" vertex="1" parent="ea0i6UJMl8aY-2mFWfL6-88">
          <mxGeometry y="20" width="60" height="20" as="geometry" />
        </mxCell>
      </root>
    </mxGraphModel>
  </diagram>
</mxfile>
